<svg xmlns="http://www.w3.org/2000/svg" xmlns:xlink="http://www.w3.org/1999/xlink" width="1080" zoomAndPan="magnify" viewBox="0 0 810 809.999993" height="1080" preserveAspectRatio="xMidYMid meet" version="1.0"><path fill="#f7c584" d="M 745.351562 732.433594 C 745.351562 732.433594 68.371094 732.433594 68.371094 732.433594 C 68.371094 732.433594 68.371094 755.550781 68.371094 755.550781 C 68.371094 755.550781 745.351562 755.550781 745.351562 755.550781 C 745.351562 755.550781 745.351562 732.433594 745.351562 732.433594 Z M 745.351562 732.433594 " fill-opacity="1" fill-rule="nonzero"/><path fill="#f7c584" d="M 75.25 732.433594 C 75.25 732.433594 91.601562 748.785156 91.601562 748.785156 C 91.601562 748.785156 59.511719 780.875 59.511719 780.875 C 59.511719 780.875 26.816406 780.867188 26.816406 780.867188 C 26.816406 780.867188 75.25 732.433594 75.25 732.433594 Z M 75.25 732.433594 " fill-opacity="1" fill-rule="nonzero"/><path fill="#f7c584" d="M 738.472656 732.433594 C 738.472656 732.433594 722.121094 748.785156 722.121094 748.785156 C 722.121094 748.785156 754.210938 780.875 754.210938 780.875 C 754.210938 780.875 786.90625 780.867188 786.90625 780.867188 C 786.90625 780.867188 738.472656 732.433594 738.472656 732.433594 Z M 738.472656 732.433594 " fill-opacity="1" fill-rule="nonzero"/><path fill="#f7c584" d="M 68.371094 127.441406 C 68.371094 127.441406 68.371094 732.433594 68.371094 732.433594 C 68.371094 732.433594 91.488281 732.433594 91.488281 732.433594 C 91.488281 732.433594 91.488281 129.390625 91.488281 129.390625 C 91.488281 94.320312 119.917969 65.890625 154.988281 65.890625 C 154.988281 65.890625 658.734375 65.890625 658.734375 65.890625 C 693.804688 65.890625 722.234375 94.320312 722.234375 129.390625 C 722.234375 129.390625 722.234375 732.433594 722.234375 732.433594 C 722.234375 732.433594 745.351562 732.433594 745.351562 732.433594 C 745.351562 732.433594 745.351562 127.441406 745.351562 127.441406 C 745.351562 80.683594 707.445312 42.773438 660.683594 42.773438 C 660.683594 42.773438 153.039062 42.773438 153.039062 42.773438 C 106.277344 42.773438 68.371094 80.683594 68.371094 127.441406 Z M 68.371094 127.441406 " fill-opacity="1" fill-rule="nonzero"/><path fill="#000000" d="M 163.230469 40.191406 C 155.589844 40.191406 147.984375 40.042969 140.394531 41.125 C 129.351562 42.699219 118.625 46.46875 109 52.105469 C 90.191406 63.125 75.910156 81.167969 69.550781 102.023438 C 65.605469 114.957031 65.789062 127.898438 65.789062 141.164062 C 65.789062 141.164062 65.789062 190.273438 65.789062 190.273438 C 65.789062 190.273438 65.789062 266.132812 65.789062 266.132812 C 65.789062 266.132812 65.789062 358.820312 65.789062 358.820312 C 65.789062 358.820312 65.789062 458.171875 65.789062 458.171875 C 65.789062 458.171875 65.789062 555.101562 65.789062 555.101562 C 65.789062 555.101562 65.789062 639.449219 65.789062 639.449219 C 65.789062 639.449219 65.789062 701.25 65.789062 701.25 C 65.789062 711.207031 65.640625 721.179688 65.789062 731.136719 C 65.792969 731.566406 65.789062 732 65.789062 732.433594 C 65.789062 735.757812 70.953125 735.761719 70.953125 732.433594 C 70.953125 732.433594 70.953125 712.152344 70.953125 712.152344 C 70.953125 712.152344 70.953125 657.953125 70.953125 657.953125 C 70.953125 657.953125 70.953125 579.046875 70.953125 579.046875 C 70.953125 579.046875 70.953125 485.511719 70.953125 485.511719 C 70.953125 485.511719 70.953125 386.628906 70.953125 386.628906 C 70.953125 386.628906 70.953125 291.90625 70.953125 291.90625 C 70.953125 291.90625 70.953125 210.609375 70.953125 210.609375 C 70.953125 210.609375 70.953125 152.839844 70.953125 152.839844 C 70.953125 144.484375 70.921875 136.132812 70.953125 127.777344 C 71.097656 87.324219 101.054688 52.015625 141.296875 46.171875 C 148.558594 45.117188 155.914062 45.359375 163.230469 45.359375 C 166.554688 45.359375 166.558594 40.191406 163.230469 40.191406 Z M 163.230469 40.191406 " fill-opacity="1" fill-rule="nonzero"/><path fill="#000000" d="M 747.933594 176.957031 C 747.933594 176.957031 747.933594 158.886719 747.933594 158.886719 C 747.933594 158.886719 747.933594 131.769531 747.933594 131.769531 C 747.933594 129.519531 747.964844 127.265625 747.898438 125.015625 C 747.703125 117.949219 746.65625 110.875 744.765625 104.0625 C 741.101562 90.855469 734.253906 78.609375 725.011719 68.5 C 715.796875 58.421875 704.21875 50.640625 691.46875 45.789062 C 681.363281 41.945312 670.628906 40.191406 659.839844 40.191406 C 659.839844 40.191406 643.425781 40.191406 643.425781 40.191406 C 643.425781 40.191406 614.871094 40.191406 614.871094 40.191406 C 614.871094 40.191406 586.574219 40.191406 586.574219 40.191406 C 586.574219 40.191406 570.261719 40.191406 570.261719 40.191406 C 570.261719 40.191406 569.488281 40.191406 569.488281 40.191406 C 566.164062 40.191406 566.160156 45.359375 569.488281 45.359375 C 569.488281 45.359375 580.875 45.359375 580.875 45.359375 C 580.875 45.359375 607.164062 45.359375 607.164062 45.359375 C 607.164062 45.359375 636.464844 45.359375 636.464844 45.359375 C 636.464844 45.359375 657.179688 45.359375 657.179688 45.359375 C 658.34375 45.359375 659.507812 45.355469 660.671875 45.359375 C 667.257812 45.367188 673.257812 46.042969 679.59375 47.546875 C 692.414062 50.582031 704.445312 56.734375 714.289062 65.269531 C 724.148438 73.816406 732 84.675781 736.78125 96.5625 C 740.964844 106.964844 742.769531 117.503906 742.769531 128.5625 C 742.769531 128.5625 742.769531 151.878906 742.769531 151.878906 C 742.769531 151.878906 742.769531 175.617188 742.769531 175.617188 C 742.769531 175.617188 742.769531 176.957031 742.769531 176.957031 C 742.769531 180.28125 747.933594 180.285156 747.933594 176.957031 Z M 747.933594 176.957031 " fill-opacity="1" fill-rule="nonzero"/><path fill="#000000" d="M 747.933594 732.433594 C 747.933594 732.433594 747.933594 722.078125 747.933594 722.078125 C 747.933594 722.078125 747.933594 694.160156 747.933594 694.160156 C 747.933594 694.160156 747.933594 652.761719 747.933594 652.761719 C 747.933594 652.761719 747.933594 602.257812 747.933594 602.257812 C 747.933594 602.257812 747.933594 547.136719 747.933594 547.136719 C 747.933594 547.136719 747.933594 491.117188 747.933594 491.117188 C 747.933594 491.117188 747.933594 439.238281 747.933594 439.238281 C 747.933594 439.238281 747.933594 395.242188 747.933594 395.242188 C 747.933594 395.242188 747.933594 363.609375 747.933594 363.609375 C 747.933594 358.628906 748.027344 353.636719 747.933594 348.660156 C 747.929688 348.441406 747.933594 348.222656 747.933594 348.003906 C 747.933594 344.679688 742.769531 344.675781 742.769531 348.003906 C 742.769531 348.003906 742.769531 358.359375 742.769531 358.359375 C 742.769531 358.359375 742.769531 386.277344 742.769531 386.277344 C 742.769531 386.277344 742.769531 427.671875 742.769531 427.671875 C 742.769531 427.671875 742.769531 478.175781 742.769531 478.175781 C 742.769531 478.175781 742.769531 533.300781 742.769531 533.300781 C 742.769531 533.300781 742.769531 589.320312 742.769531 589.320312 C 742.769531 589.320312 742.769531 641.199219 742.769531 641.199219 C 742.769531 641.199219 742.769531 685.195312 742.769531 685.195312 C 742.769531 685.195312 742.769531 716.828125 742.769531 716.828125 C 742.769531 721.808594 742.675781 726.800781 742.769531 731.777344 C 742.773438 731.996094 742.769531 732.214844 742.769531 732.433594 C 742.769531 735.757812 747.933594 735.761719 747.933594 732.433594 Z M 747.933594 732.433594 " fill-opacity="1" fill-rule="nonzero"/><path fill="#000000" d="M 91.488281 735.015625 C 91.488281 735.015625 103.0625 735.015625 103.0625 735.015625 C 103.0625 735.015625 134.285156 735.015625 134.285156 735.015625 C 134.285156 735.015625 180.570312 735.015625 180.570312 735.015625 C 180.570312 735.015625 237.039062 735.015625 237.039062 735.015625 C 237.039062 735.015625 298.675781 735.015625 298.675781 735.015625 C 298.675781 735.015625 361.3125 735.015625 361.3125 735.015625 C 361.3125 735.015625 419.320312 735.015625 419.320312 735.015625 C 419.320312 735.015625 468.511719 735.015625 468.511719 735.015625 C 468.511719 735.015625 503.882812 735.015625 503.882812 735.015625 C 509.449219 735.015625 515.03125 735.121094 520.601562 735.015625 C 520.84375 735.011719 521.085938 735.015625 521.332031 735.015625 C 524.65625 735.015625 524.660156 729.847656 521.332031 729.847656 C 521.332031 729.847656 509.753906 729.847656 509.753906 729.847656 C 509.753906 729.847656 478.535156 729.847656 478.535156 729.847656 C 478.535156 729.847656 432.25 729.847656 432.25 729.847656 C 432.25 729.847656 375.78125 729.847656 375.78125 729.847656 C 375.78125 729.847656 314.144531 729.847656 314.144531 729.847656 C 314.144531 729.847656 251.507812 729.847656 251.507812 729.847656 C 251.507812 729.847656 193.5 729.847656 193.5 729.847656 C 193.5 729.847656 144.304688 729.847656 144.304688 729.847656 C 144.304688 729.847656 108.9375 729.847656 108.9375 729.847656 C 103.367188 729.847656 97.789062 729.742188 92.21875 729.847656 C 91.976562 729.855469 91.730469 729.847656 91.488281 729.847656 C 88.164062 729.847656 88.160156 735.015625 91.488281 735.015625 Z M 91.488281 735.015625 " fill-opacity="1" fill-rule="nonzero"/><path fill="#000000" d="M 421.453125 758.132812 C 421.453125 758.132812 428.828125 758.132812 428.828125 758.132812 C 428.828125 758.132812 448.71875 758.132812 448.71875 758.132812 C 448.71875 758.132812 478.214844 758.132812 478.214844 758.132812 C 478.214844 758.132812 514.195312 758.132812 514.195312 758.132812 C 514.195312 758.132812 553.46875 758.132812 553.46875 758.132812 C 553.46875 758.132812 593.382812 758.132812 593.382812 758.132812 C 593.382812 758.132812 630.34375 758.132812 630.34375 758.132812 C 630.34375 758.132812 661.6875 758.132812 661.6875 758.132812 C 661.6875 758.132812 684.226562 758.132812 684.226562 758.132812 C 687.773438 758.132812 691.328125 758.195312 694.878906 758.132812 C 695.03125 758.128906 695.1875 758.132812 695.34375 758.132812 C 698.667969 758.132812 698.671875 752.96875 695.34375 752.96875 C 695.34375 752.96875 687.96875 752.96875 687.96875 752.96875 C 687.96875 752.96875 668.074219 752.96875 668.074219 752.96875 C 668.074219 752.96875 638.582031 752.96875 638.582031 752.96875 C 638.582031 752.96875 602.601562 752.96875 602.601562 752.96875 C 602.601562 752.96875 563.328125 752.96875 563.328125 752.96875 C 563.328125 752.96875 523.414062 752.96875 523.414062 752.96875 C 523.414062 752.96875 486.453125 752.96875 486.453125 752.96875 C 486.453125 752.96875 455.105469 752.96875 455.105469 752.96875 C 455.105469 752.96875 432.570312 752.96875 432.570312 752.96875 C 429.023438 752.96875 425.464844 752.902344 421.917969 752.96875 C 421.761719 752.96875 421.605469 752.96875 421.453125 752.96875 C 418.128906 752.96875 418.121094 758.132812 421.453125 758.132812 Z M 421.453125 758.132812 " fill-opacity="1" fill-rule="nonzero"/><path fill="#f7c584" d="M 260.851562 105.441406 C 260.851562 105.441406 102.386719 97.136719 102.386719 97.136719 C 102.386719 97.136719 101.191406 119.9375 101.191406 119.9375 C 101.191406 119.9375 259.65625 128.242188 259.65625 128.242188 C 259.65625 128.242188 260.851562 105.441406 260.851562 105.441406 Z M 260.851562 105.441406 " fill-opacity="1" fill-rule="nonzero"/><path fill="#000000" d="M 260.984375 102.859375 C 260.984375 102.859375 256.746094 102.640625 256.746094 102.640625 C 256.746094 102.640625 245.214844 102.035156 245.214844 102.035156 C 245.214844 102.035156 228.15625 101.140625 228.15625 101.140625 C 228.15625 101.140625 207.34375 100.050781 207.34375 100.050781 C 207.34375 100.050781 184.546875 98.855469 184.546875 98.855469 C 184.546875 98.855469 161.539062 97.648438 161.539062 97.648438 C 161.539062 97.648438 140.179688 96.53125 140.179688 96.53125 C 140.179688 96.53125 122.035156 95.578125 122.035156 95.578125 C 122.035156 95.578125 108.984375 94.894531 108.984375 94.894531 C 106.921875 94.785156 104.855469 94.632812 102.792969 94.570312 C 102.703125 94.566406 102.613281 94.5625 102.523438 94.554688 C 101.128906 94.484375 99.882812 95.601562 99.808594 97 C 99.808594 97 98.765625 116.929688 98.765625 116.929688 C 98.765625 116.929688 98.613281 119.800781 98.613281 119.800781 C 98.539062 121.195312 99.660156 122.441406 101.058594 122.515625 C 101.058594 122.515625 105.296875 122.738281 105.296875 122.738281 C 105.296875 122.738281 116.828125 123.34375 116.828125 123.34375 C 116.828125 123.34375 133.886719 124.234375 133.886719 124.234375 C 133.886719 124.234375 154.699219 125.328125 154.699219 125.328125 C 154.699219 125.328125 177.496094 126.523438 177.496094 126.523438 C 177.496094 126.523438 200.503906 127.726562 200.503906 127.726562 C 200.503906 127.726562 221.863281 128.847656 221.863281 128.847656 C 221.863281 128.847656 240.007812 129.796875 240.007812 129.796875 C 240.007812 129.796875 253.058594 130.480469 253.058594 130.480469 C 255.121094 130.589844 257.1875 130.746094 259.253906 130.804688 C 259.34375 130.808594 259.429688 130.816406 259.519531 130.820312 C 260.914062 130.894531 262.160156 129.773438 262.234375 128.375 C 262.234375 128.375 263.28125 108.445312 263.28125 108.445312 C 263.28125 108.445312 263.429688 105.574219 263.429688 105.574219 C 263.605469 102.257812 258.445312 101.980469 258.269531 105.304688 C 258.269531 105.304688 257.226562 125.234375 257.226562 125.234375 C 257.226562 125.234375 257.078125 128.105469 257.078125 128.105469 C 257.078125 128.105469 259.789062 125.660156 259.789062 125.660156 C 259.789062 125.660156 255.550781 125.4375 255.550781 125.4375 C 255.550781 125.4375 244.019531 124.835938 244.019531 124.835938 C 244.019531 124.835938 226.960938 123.941406 226.960938 123.941406 C 226.960938 123.941406 206.148438 122.851562 206.148438 122.851562 C 206.148438 122.851562 183.351562 121.65625 183.351562 121.65625 C 183.351562 121.65625 160.34375 120.449219 160.34375 120.449219 C 160.34375 120.449219 138.984375 119.332031 138.984375 119.332031 C 138.984375 119.332031 120.84375 118.378906 120.84375 118.378906 C 120.84375 118.378906 107.789062 117.695312 107.789062 117.695312 C 105.734375 117.585938 103.65625 117.382812 101.597656 117.371094 C 101.507812 117.371094 101.417969 117.363281 101.328125 117.355469 C 101.328125 117.355469 103.773438 120.070312 103.773438 120.070312 C 103.773438 120.070312 104.816406 100.140625 104.816406 100.140625 C 104.816406 100.140625 104.96875 97.269531 104.96875 97.269531 C 104.96875 97.269531 102.253906 99.714844 102.253906 99.714844 C 102.253906 99.714844 106.492188 99.9375 106.492188 99.9375 C 106.492188 99.9375 118.023438 100.542969 118.023438 100.542969 C 118.023438 100.542969 135.082031 101.4375 135.082031 101.4375 C 135.082031 101.4375 155.894531 102.527344 155.894531 102.527344 C 155.894531 102.527344 178.691406 103.722656 178.691406 103.722656 C 178.691406 103.722656 201.699219 104.925781 201.699219 104.925781 C 201.699219 104.925781 223.058594 106.046875 223.058594 106.046875 C 223.058594 106.046875 241.199219 106.996094 241.199219 106.996094 C 241.199219 106.996094 254.253906 107.679688 254.253906 107.679688 C 256.316406 107.789062 258.382812 107.945312 260.445312 108.003906 C 260.535156 108.007812 260.625 108.015625 260.714844 108.019531 C 264.035156 108.195312 264.3125 103.035156 260.984375 102.859375 Z M 260.984375 102.859375 " fill-opacity="1" fill-rule="nonzero"/><path fill="#000000" d="M 184.820312 40.1875 C 178.824219 39.953125 173.394531 43.402344 171.019531 48.898438 C 168.75 54.15625 170.164062 60.699219 174.367188 64.570312 C 176.855469 66.871094 179.957031 68.210938 183.339844 68.433594 C 183.339844 68.433594 180.898438 65.71875 180.898438 65.71875 C 180.898438 65.71875 179.273438 96.699219 179.273438 96.699219 C 179.273438 96.699219 179.039062 101.152344 179.039062 101.152344 C 178.867188 104.472656 184.023438 104.75 184.199219 101.425781 C 184.199219 101.425781 185.824219 70.445312 185.824219 70.445312 C 185.824219 70.445312 186.054688 65.988281 186.054688 65.988281 C 186.128906 64.582031 185.007812 63.363281 183.613281 63.273438 C 178.714844 62.953125 174.859375 58.785156 175.117188 53.839844 C 175.378906 48.894531 179.65625 45.152344 184.550781 45.347656 C 187.871094 45.476562 188.148438 40.320312 184.820312 40.1875 Z M 184.820312 40.1875 " fill-opacity="1" fill-rule="nonzero"/><path fill="#92d1dc" d="M 100.726562 128.820312 C 100.726562 128.820312 259.191406 137.125 259.191406 137.125 C 259.191406 137.125 239.765625 255.277344 233.796875 336.414062 C 227.828125 417.550781 216.65625 549 216.65625 549 C 216.65625 549 118.328125 543.847656 118.328125 543.847656 C 118.328125 543.847656 117.152344 320.871094 117.152344 320.871094 C 117.152344 320.871094 108.550781 267.859375 105.566406 214.808594 C 102.582031 161.757812 100.726562 128.820312 100.726562 128.820312 Z M 100.726562 128.820312 " fill-opacity="1" fill-rule="nonzero"/><path fill="#000000" d="M 130.664062 106.496094 C 130.664062 106.496094 116.699219 105.761719 116.699219 105.761719 C 116.699219 105.761719 115.132812 135.652344 115.132812 135.652344 C 115.132812 135.652344 129.097656 136.382812 129.097656 136.382812 C 129.097656 136.382812 130.664062 106.496094 130.664062 106.496094 Z M 130.664062 106.496094 " fill-opacity="1" fill-rule="nonzero"/><path fill="#000000" d="M 245.71875 112.523438 C 245.71875 112.523438 231.75 111.792969 231.75 111.792969 C 231.75 111.792969 230.183594 141.683594 230.183594 141.683594 C 230.183594 141.683594 244.152344 142.414062 244.152344 142.414062 C 244.152344 142.414062 245.71875 112.523438 245.71875 112.523438 Z M 245.71875 112.523438 " fill-opacity="1" fill-rule="nonzero"/><path fill="#000000" d="M 168.730469 546.488281 C 168.859375 543.136719 168.988281 539.789062 169.117188 536.4375 C 169.46875 527.40625 169.816406 518.371094 170.164062 509.335938 C 170.683594 495.886719 171.203125 482.441406 171.722656 468.992188 C 172.351562 452.699219 172.984375 436.40625 173.613281 420.113281 C 174.308594 402.144531 175 384.175781 175.695312 366.210938 C 176.390625 348.195312 177.089844 330.179688 177.785156 312.164062 C 178.4375 295.253906 179.089844 278.34375 179.746094 261.429688 C 180.292969 247.234375 180.839844 233.039062 181.390625 218.847656 C 181.785156 208.566406 182.183594 198.289062 182.582031 188.011719 C 182.769531 183.175781 183.035156 178.335938 183.140625 173.496094 C 183.148438 173.285156 183.160156 173.074219 183.167969 172.863281 C 183.292969 169.542969 178.136719 169.265625 178.007812 172.59375 C 178.007812 172.59375 177.621094 182.644531 177.621094 182.644531 C 177.269531 191.675781 176.921875 200.710938 176.574219 209.746094 C 176.050781 223.191406 175.53125 236.640625 175.011719 250.089844 C 174.382812 266.382812 173.753906 282.675781 173.125 298.96875 C 172.429688 316.9375 171.734375 334.90625 171.042969 352.875 C 170.34375 370.886719 169.648438 388.902344 168.953125 406.914062 C 168.300781 423.828125 167.648438 440.738281 166.992188 457.648438 C 166.445312 471.84375 165.894531 486.039062 165.347656 500.234375 C 164.949219 510.515625 164.554688 520.792969 164.15625 531.070312 C 163.96875 535.90625 163.699219 540.746094 163.59375 545.582031 C 163.589844 545.792969 163.578125 546.003906 163.570312 546.21875 C 163.441406 549.535156 168.601562 549.816406 168.730469 546.488281 Z M 168.730469 546.488281 " fill-opacity="1" fill-rule="nonzero"/><path fill="#000000" d="M 101.871094 154.101562 C 101.871094 154.101562 113.007812 154.6875 113.007812 154.6875 C 113.007812 154.6875 139.742188 156.085938 139.742188 156.085938 C 139.742188 156.085938 171.957031 157.777344 171.957031 157.777344 C 171.957031 157.777344 199.800781 159.234375 199.800781 159.234375 C 204.308594 159.472656 208.839844 159.851562 213.355469 159.945312 C 213.417969 159.949219 213.484375 159.953125 213.550781 159.957031 C 216.867188 160.128906 217.144531 154.972656 213.820312 154.796875 C 213.820312 154.796875 202.683594 154.214844 202.683594 154.214844 C 202.683594 154.214844 175.945312 152.8125 175.945312 152.8125 C 175.945312 152.8125 143.730469 151.125 143.730469 151.125 C 143.730469 151.125 115.890625 149.664062 115.890625 149.664062 C 111.378906 149.429688 106.851562 149.046875 102.335938 148.953125 C 102.269531 148.953125 102.207031 148.949219 102.140625 148.945312 C 98.820312 148.769531 98.546875 153.929688 101.871094 154.101562 Z M 101.871094 154.101562 " fill-opacity="1" fill-rule="nonzero"/><path fill="#000000" d="M 142.164062 153.628906 C 142.011719 147.019531 141.855469 140.414062 141.703125 133.808594 C 141.679688 132.859375 141.660156 131.910156 141.636719 130.964844 C 141.605469 129.570312 140.660156 128.328125 139.191406 128.25 C 137.878906 128.179688 136.445312 129.292969 136.476562 130.695312 C 136.476562 130.695312 136.9375 150.515625 136.9375 150.515625 C 136.960938 151.460938 136.984375 152.410156 137.003906 153.359375 C 137.039062 154.753906 137.980469 155.996094 139.449219 156.074219 C 140.765625 156.140625 142.195312 155.03125 142.164062 153.628906 Z M 142.164062 153.628906 " fill-opacity="1" fill-rule="nonzero"/><path fill="#000000" d="M 188.332031 156.046875 C 189.175781 149.492188 190.019531 142.9375 190.863281 136.382812 C 190.984375 135.445312 191.105469 134.503906 191.226562 133.5625 C 191.40625 132.175781 190.101562 130.917969 188.78125 130.847656 C 187.300781 130.769531 186.246094 131.902344 186.070312 133.292969 C 185.226562 139.847656 184.382812 146.402344 183.539062 152.957031 C 183.417969 153.898438 183.296875 154.835938 183.175781 155.777344 C 182.996094 157.164062 184.300781 158.421875 185.621094 158.492188 C 187.101562 158.570312 188.15625 157.4375 188.332031 156.046875 Z M 188.332031 156.046875 " fill-opacity="1" fill-rule="nonzero"/><path fill="#000000" d="M 103.179688 177.371094 C 107.660156 177.800781 112.144531 178.234375 116.628906 178.664062 C 123.816406 179.355469 131.007812 180.046875 138.195312 180.738281 C 138.195312 180.738281 143.132812 181.210938 143.132812 181.210938 C 143.132812 181.210938 140.6875 178.496094 140.6875 178.496094 C 139.679688 188.441406 138.429688 198.386719 136.800781 208.25 C 136.667969 209.058594 136.53125 209.863281 136.390625 210.671875 C 136.324219 211.066406 136.253906 211.457031 136.183594 211.851562 C 136.15625 212.007812 136.125 212.164062 136.097656 212.320312 C 136.078125 212.421875 135.898438 213.390625 136.011719 212.789062 C 135.734375 214.261719 135.4375 215.734375 135.109375 217.195312 C 134.828125 218.457031 134.523438 219.710938 134.175781 220.953125 C 134.03125 221.464844 133.878906 221.976562 133.710938 222.484375 C 133.636719 222.714844 133.5625 222.941406 133.476562 223.167969 C 133.410156 223.351562 132.960938 224.320312 133.289062 223.699219 C 132.996094 224.253906 132.671875 224.789062 132.300781 225.296875 C 132.21875 225.40625 131.566406 226.207031 131.992188 225.714844 C 131.726562 226.019531 131.449219 226.316406 131.160156 226.601562 C 130.660156 227.097656 130.128906 227.566406 129.582031 228.007812 C 129.296875 228.238281 129.007812 228.460938 128.714844 228.679688 C 128.597656 228.769531 128.476562 228.851562 128.355469 228.941406 C 128.117188 229.109375 128.113281 229.113281 128.347656 228.953125 C 128.222656 229.039062 128.097656 229.121094 127.972656 229.207031 C 125.300781 230.976562 122.394531 232.382812 119.4375 233.601562 C 118.59375 233.953125 117.742188 234.285156 116.886719 234.601562 C 116.714844 234.664062 116.539062 234.730469 116.367188 234.792969 C 116.191406 234.859375 116.226562 234.84375 116.480469 234.75 C 116.347656 234.800781 116.210938 234.847656 116.074219 234.894531 C 115.710938 235.023438 115.34375 235.148438 114.976562 235.273438 C 113.601562 235.738281 112.210938 236.171875 110.816406 236.574219 C 109.492188 236.957031 108.164062 237.324219 106.824219 237.625 C 103.585938 238.351562 104.679688 243.402344 107.933594 242.671875 C 111.890625 241.78125 115.78125 240.503906 119.570312 239.074219 C 125.683594 236.773438 132.273438 233.71875 136.382812 228.445312 C 137.996094 226.375 138.753906 223.886719 139.402344 221.386719 C 140.207031 218.253906 140.8125 215.070312 141.382812 211.886719 C 142.613281 205.03125 143.558594 198.125 144.417969 191.210938 C 144.9375 187.070312 145.425781 182.921875 145.847656 178.765625 C 145.992188 177.335938 144.738281 176.179688 143.402344 176.054688 C 138.917969 175.621094 134.4375 175.191406 129.953125 174.761719 C 122.765625 174.070312 115.574219 173.378906 108.382812 172.6875 C 108.382812 172.6875 103.449219 172.214844 103.449219 172.214844 C 102.058594 172.078125 100.804688 173.304688 100.734375 174.65625 C 100.660156 176.105469 101.785156 177.238281 103.179688 177.371094 Z M 103.179688 177.371094 " fill-opacity="1" fill-rule="nonzero"/><path fill="#f7c584" d="M 548.847656 105.347656 C 548.847656 105.347656 390.382812 97.042969 390.382812 97.042969 C 390.382812 97.042969 389.1875 119.839844 389.1875 119.839844 C 389.1875 119.839844 547.652344 128.144531 547.652344 128.144531 C 547.652344 128.144531 548.847656 105.347656 548.847656 105.347656 Z M 548.847656 105.347656 " fill-opacity="1" fill-rule="nonzero"/><path fill="#000000" d="M 472.816406 40.09375 C 466.820312 39.855469 461.390625 43.308594 459.015625 48.804688 C 456.746094 54.0625 458.160156 60.601562 462.363281 64.476562 C 464.851562 66.773438 467.949219 68.117188 471.335938 68.335938 C 471.335938 68.335938 468.890625 65.621094 468.890625 65.621094 C 468.890625 65.621094 467.269531 96.601562 467.269531 96.601562 C 467.269531 96.601562 467.035156 101.058594 467.035156 101.058594 C 466.859375 104.378906 472.019531 104.652344 472.195312 101.328125 C 472.195312 101.328125 473.816406 70.347656 473.816406 70.347656 C 473.816406 70.347656 474.050781 65.894531 474.050781 65.894531 C 474.125 64.484375 473.003906 63.269531 471.605469 63.179688 C 466.710938 62.859375 462.855469 58.691406 463.113281 53.746094 C 463.371094 48.800781 467.652344 45.058594 472.546875 45.253906 C 475.867188 45.382812 476.144531 40.226562 472.816406 40.09375 Z M 472.816406 40.09375 " fill-opacity="1" fill-rule="nonzero"/><path fill="#000000" d="M 548.980469 102.765625 C 548.980469 102.765625 544.742188 102.542969 544.742188 102.542969 C 544.742188 102.542969 533.210938 101.9375 533.210938 101.9375 C 533.210938 101.9375 516.152344 101.046875 516.152344 101.046875 C 516.152344 101.046875 495.339844 99.953125 495.339844 99.953125 C 495.339844 99.953125 472.542969 98.757812 472.542969 98.757812 C 472.542969 98.757812 449.535156 97.554688 449.535156 97.554688 C 449.535156 97.554688 428.175781 96.433594 428.175781 96.433594 C 428.175781 96.433594 410.03125 95.484375 410.03125 95.484375 C 410.03125 95.484375 396.976562 94.800781 396.976562 94.800781 C 394.917969 94.691406 392.851562 94.535156 390.789062 94.476562 C 390.699219 94.472656 390.609375 94.464844 390.519531 94.460938 C 389.125 94.386719 387.878906 95.507812 387.804688 96.90625 C 387.804688 96.90625 386.757812 116.835938 386.757812 116.835938 C 386.757812 116.835938 386.609375 119.707031 386.609375 119.707031 C 386.535156 121.101562 387.65625 122.347656 389.054688 122.421875 C 389.054688 122.421875 393.292969 122.640625 393.292969 122.640625 C 393.292969 122.640625 404.824219 123.246094 404.824219 123.246094 C 404.824219 123.246094 421.882812 124.140625 421.882812 124.140625 C 421.882812 124.140625 442.695312 125.230469 442.695312 125.230469 C 442.695312 125.230469 465.492188 126.425781 465.492188 126.425781 C 465.492188 126.425781 488.5 127.632812 488.5 127.632812 C 488.5 127.632812 509.859375 128.75 509.859375 128.75 C 509.859375 128.75 528 129.703125 528 129.703125 C 528 129.703125 541.054688 130.386719 541.054688 130.386719 C 543.117188 130.496094 545.183594 130.648438 547.246094 130.710938 C 547.335938 130.710938 547.425781 130.71875 547.515625 130.726562 C 548.910156 130.796875 550.15625 129.679688 550.230469 128.28125 C 550.230469 128.28125 551.273438 108.351562 551.273438 108.351562 C 551.273438 108.351562 551.425781 105.480469 551.425781 105.480469 C 551.597656 102.160156 546.441406 101.886719 546.265625 105.210938 C 546.265625 105.210938 545.222656 125.140625 545.222656 125.140625 C 545.222656 125.140625 545.070312 128.011719 545.070312 128.011719 C 545.070312 128.011719 547.785156 125.566406 547.785156 125.566406 C 547.785156 125.566406 543.546875 125.34375 543.546875 125.34375 C 543.546875 125.34375 532.015625 124.738281 532.015625 124.738281 C 532.015625 124.738281 514.957031 123.84375 514.957031 123.84375 C 514.957031 123.84375 494.144531 122.753906 494.144531 122.753906 C 494.144531 122.753906 471.347656 121.558594 471.347656 121.558594 C 471.347656 121.558594 448.339844 120.355469 448.339844 120.355469 C 448.339844 120.355469 426.980469 119.234375 426.980469 119.234375 C 426.980469 119.234375 408.835938 118.285156 408.835938 118.285156 C 408.835938 118.285156 395.78125 117.601562 395.78125 117.601562 C 393.726562 117.492188 391.652344 117.285156 389.59375 117.277344 C 389.503906 117.273438 389.414062 117.265625 389.324219 117.261719 C 389.324219 117.261719 391.769531 119.976562 391.769531 119.976562 C 391.769531 119.976562 392.8125 100.046875 392.8125 100.046875 C 392.8125 100.046875 392.960938 97.175781 392.960938 97.175781 C 392.960938 97.175781 390.25 99.621094 390.25 99.621094 C 390.25 99.621094 394.484375 99.839844 394.484375 99.839844 C 394.484375 99.839844 406.019531 100.445312 406.019531 100.445312 C 406.019531 100.445312 423.078125 101.339844 423.078125 101.339844 C 423.078125 101.339844 443.890625 102.429688 443.890625 102.429688 C 443.890625 102.429688 466.6875 103.625 466.6875 103.625 C 466.6875 103.625 489.695312 104.832031 489.695312 104.832031 C 489.695312 104.832031 511.054688 105.949219 511.054688 105.949219 C 511.054688 105.949219 529.195312 106.902344 529.195312 106.902344 C 529.195312 106.902344 542.25 107.585938 542.25 107.585938 C 544.3125 107.695312 546.378906 107.847656 548.441406 107.910156 C 548.53125 107.914062 548.621094 107.917969 548.710938 107.925781 C 552.03125 108.097656 552.304688 102.941406 548.980469 102.765625 Z M 548.980469 102.765625 " fill-opacity="1" fill-rule="nonzero"/><path fill="#92d1dc" d="M 388.722656 128.722656 C 388.722656 128.722656 547.183594 137.027344 547.183594 137.027344 C 547.183594 137.027344 551.980469 217.585938 546.820312 327.628906 C 541.65625 437.671875 536.035156 518.828125 536.035156 518.828125 C 536.035156 518.828125 467.453125 518.664062 467.453125 518.664062 C 467.453125 518.664062 461.726562 251.722656 461.726562 251.722656 C 461.726562 251.722656 434.554688 516.9375 434.554688 516.9375 C 434.554688 516.9375 421.578125 518.828125 406.210938 517.597656 C 390.84375 516.363281 368.894531 507.066406 368.894531 507.066406 C 368.894531 507.066406 371.242188 392.183594 374.882812 300.921875 C 378.523438 209.660156 388.722656 128.722656 388.722656 128.722656 Z M 388.722656 128.722656 " fill-opacity="1" fill-rule="nonzero"/><path fill="#000000" d="M 466.972656 505.101562 C 466.972656 505.101562 487.855469 504.800781 487.855469 504.800781 C 498.929688 504.636719 510.003906 504.476562 521.078125 504.316406 C 523.59375 504.28125 526.113281 504.246094 528.628906 504.207031 C 530.023438 504.1875 531.265625 503.226562 531.34375 501.765625 C 531.414062 500.441406 530.300781 499.027344 528.898438 499.050781 C 521.941406 499.152344 514.980469 499.25 508.019531 499.351562 C 496.945312 499.511719 485.871094 499.671875 474.792969 499.832031 C 472.277344 499.871094 469.761719 499.90625 467.246094 499.941406 C 465.847656 499.964844 464.605469 500.925781 464.53125 502.386719 C 464.460938 503.710938 465.570312 505.121094 466.972656 505.101562 Z M 466.972656 505.101562 " fill-opacity="1" fill-rule="nonzero"/><path fill="#000000" d="M 536.171875 516.246094 C 528.480469 516.226562 520.792969 516.210938 513.101562 516.191406 C 500.761719 516.160156 488.421875 516.132812 476.082031 516.101562 C 473.25 516.09375 470.421875 516.089844 467.589844 516.082031 C 467.589844 516.082031 470.035156 518.796875 470.035156 518.796875 C 469.984375 516.417969 469.933594 514.035156 469.882812 511.65625 C 469.742188 505.175781 469.601562 498.695312 469.464844 492.214844 C 469.257812 482.628906 469.054688 473.046875 468.847656 463.464844 C 468.597656 451.835938 468.347656 440.203125 468.097656 428.574219 C 467.824219 415.769531 467.546875 402.96875 467.273438 390.167969 C 466.996094 377.242188 466.71875 364.316406 466.441406 351.390625 C 466.183594 339.339844 465.925781 327.285156 465.664062 315.230469 C 465.445312 305.046875 465.226562 294.859375 465.007812 284.671875 C 464.851562 277.347656 464.695312 270.023438 464.539062 262.703125 C 464.464844 259.234375 464.433594 255.765625 464.316406 252.300781 C 464.308594 252.152344 464.308594 252.003906 464.304688 251.859375 C 464.234375 248.550781 459.488281 248.253906 459.144531 251.585938 C 458.902344 253.957031 458.660156 256.328125 458.417969 258.699219 C 457.761719 265.105469 457.105469 271.515625 456.449219 277.925781 C 455.472656 287.449219 454.496094 296.972656 453.519531 306.496094 C 453.519531 306.496094 449.949219 341.371094 449.949219 341.371094 C 448.648438 354.042969 447.351562 366.710938 446.050781 379.382812 C 444.734375 392.238281 443.417969 405.089844 442.101562 417.945312 C 440.875 429.929688 439.644531 441.914062 438.417969 453.898438 C 437.386719 463.980469 436.351562 474.0625 435.320312 484.140625 C 434.574219 491.429688 433.824219 498.722656 433.078125 506.011719 C 432.730469 509.417969 432.089844 512.933594 432.019531 516.363281 C 432.015625 516.507812 431.988281 516.65625 431.972656 516.804688 C 432.648438 516.007812 433.324219 515.210938 433.996094 514.414062 C 425.15625 515.691406 415.984375 515.734375 407.097656 515.074219 C 396.757812 514.304688 386.605469 510.976562 376.921875 507.421875 C 374.5 506.535156 372.085938 505.617188 369.710938 504.613281 C 370.300781 505.476562 370.886719 506.339844 371.472656 507.199219 C 371.722656 495.070312 372.003906 482.941406 372.292969 470.8125 C 372.976562 442.273438 373.730469 413.738281 374.582031 385.203125 C 375.597656 351.164062 376.582031 317.105469 378.265625 283.089844 C 379.980469 248.476562 382.578125 213.902344 385.875 179.40625 C 386.953125 168.109375 388.109375 156.824219 389.359375 145.546875 C 389.949219 140.222656 390.804688 134.882812 391.21875 129.542969 C 391.234375 129.316406 391.273438 129.085938 391.300781 128.859375 C 391.300781 128.859375 388.585938 131.300781 388.585938 131.300781 C 388.585938 131.300781 404.332031 132.128906 404.332031 132.128906 C 404.332031 132.128906 442.148438 134.109375 442.148438 134.109375 C 442.148438 134.109375 487.914062 136.507812 487.914062 136.507812 C 487.914062 136.507812 527.496094 138.582031 527.496094 138.582031 C 533.898438 138.917969 540.359375 139.53125 546.773438 139.59375 C 546.863281 139.59375 546.957031 139.601562 547.050781 139.605469 C 550.371094 139.78125 550.644531 134.621094 547.320312 134.449219 C 547.320312 134.449219 531.574219 133.625 531.574219 133.625 C 531.574219 133.625 493.757812 131.640625 493.757812 131.640625 C 493.757812 131.640625 447.996094 129.242188 447.996094 129.242188 C 447.996094 129.242188 408.414062 127.167969 408.414062 127.167969 C 402.007812 126.832031 395.550781 126.21875 389.136719 126.160156 C 389.042969 126.15625 388.949219 126.148438 388.859375 126.144531 C 387.390625 126.066406 386.320312 127.199219 386.144531 128.589844 C 384.429688 142.191406 383.015625 155.839844 381.65625 169.484375 C 378.371094 202.453125 375.738281 235.496094 373.863281 268.574219 C 371.894531 303.328125 370.863281 338.136719 369.789062 372.929688 C 368.871094 402.632812 368.066406 432.34375 367.339844 462.054688 C 366.980469 476.796875 366.410156 491.5625 366.328125 506.3125 C 366.328125 506.519531 366.320312 506.726562 366.316406 506.929688 C 366.289062 508.148438 366.996094 509.058594 368.078125 509.515625 C 374.667969 512.300781 381.484375 514.648438 388.355469 516.617188 C 393.65625 518.132812 399.078125 519.429688 404.570312 520.03125 C 411.136719 520.753906 417.835938 520.734375 424.429688 520.398438 C 427.988281 520.214844 431.578125 519.96875 435.109375 519.460938 C 436.261719 519.292969 437.023438 518.148438 437.132812 517.074219 C 437.375 514.703125 437.617188 512.332031 437.859375 509.960938 C 438.515625 503.554688 439.175781 497.144531 439.832031 490.734375 C 440.804688 481.210938 441.78125 471.6875 442.757812 462.164062 C 443.949219 450.539062 445.140625 438.914062 446.332031 427.289062 C 446.332031 427.289062 450.226562 389.277344 450.226562 389.277344 C 450.226562 389.277344 454.175781 350.714844 454.175781 350.714844 C 455.40625 338.730469 456.632812 326.746094 457.859375 314.761719 C 458.894531 304.679688 459.925781 294.597656 460.957031 284.519531 C 460.957031 284.519531 463.199219 262.652344 463.199219 262.652344 C 463.546875 259.246094 464.203125 255.722656 464.261719 252.296875 C 464.261719 252.152344 464.289062 252.003906 464.304688 251.859375 C 464.304688 251.859375 459.144531 251.585938 459.144531 251.585938 C 459.199219 253.96875 459.25 256.351562 459.300781 258.730469 C 459.4375 265.210938 459.578125 271.691406 459.71875 278.171875 C 459.921875 287.753906 460.128906 297.335938 460.332031 306.921875 C 460.582031 318.550781 460.832031 330.179688 461.082031 341.8125 C 461.359375 354.613281 461.632812 367.414062 461.90625 380.21875 C 462.183594 393.144531 462.460938 406.066406 462.738281 418.992188 C 462.738281 418.992188 463.515625 455.152344 463.515625 455.152344 C 463.734375 465.339844 463.953125 475.527344 464.171875 485.710938 C 464.328125 493.035156 464.484375 500.359375 464.644531 507.683594 C 464.71875 511.148438 464.746094 514.621094 464.867188 518.085938 C 464.871094 518.230469 464.871094 518.378906 464.875 518.527344 C 464.90625 519.867188 465.839844 521.238281 467.320312 521.242188 C 475.011719 521.261719 482.699219 521.277344 490.390625 521.296875 C 502.730469 521.324219 515.070312 521.355469 527.40625 521.386719 C 530.238281 521.390625 533.070312 521.398438 535.902344 521.40625 C 539.214844 521.414062 539.503906 516.253906 536.171875 516.246094 Z M 536.171875 516.246094 " fill-opacity="1" fill-rule="nonzero"/><path fill="#000000" d="M 418.65625 106.398438 C 418.65625 106.398438 404.695312 105.667969 404.695312 105.667969 C 404.695312 105.667969 403.128906 135.558594 403.128906 135.558594 C 403.128906 135.558594 417.089844 136.289062 417.089844 136.289062 C 417.089844 136.289062 418.65625 106.398438 418.65625 106.398438 Z M 418.65625 106.398438 " fill-opacity="1" fill-rule="nonzero"/><path fill="#000000" d="M 533.710938 112.429688 C 533.710938 112.429688 519.746094 111.699219 519.746094 111.699219 C 519.746094 111.699219 518.179688 141.585938 518.179688 141.585938 C 518.179688 141.585938 532.144531 142.320312 532.144531 142.320312 C 532.144531 142.320312 533.710938 112.429688 533.710938 112.429688 Z M 533.710938 112.429688 " fill-opacity="1" fill-rule="nonzero"/><path fill="#000000" d="M 467.320312 132.84375 C 467.320312 132.84375 466.863281 141.558594 466.863281 141.558594 C 466.863281 141.558594 465.765625 162.484375 465.765625 162.484375 C 465.765625 162.484375 464.4375 187.796875 464.4375 187.796875 C 464.4375 187.796875 463.292969 209.671875 463.292969 209.671875 C 463.109375 213.199219 462.792969 216.746094 462.738281 220.277344 C 462.734375 220.328125 462.730469 220.378906 462.726562 220.429688 C 462.65625 221.824219 463.777344 223.074219 465.171875 223.144531 C 465.171875 223.144531 474.945312 223.65625 474.945312 223.65625 C 476.320312 223.730469 477.609375 222.613281 477.660156 221.214844 C 477.761719 218.304688 477.867188 215.398438 477.96875 212.492188 C 477.96875 212.492188 478.722656 191.546875 478.722656 191.546875 C 479.023438 183.101562 479.328125 174.65625 479.628906 166.210938 C 479.890625 158.914062 480.152344 151.613281 480.414062 144.316406 C 480.539062 140.785156 480.777344 137.238281 480.792969 133.703125 C 480.792969 133.652344 480.800781 133.601562 480.800781 133.546875 C 480.921875 130.230469 475.761719 129.949219 475.640625 133.277344 C 475.539062 136.1875 475.433594 139.09375 475.328125 142 C 475.078125 148.984375 474.828125 155.964844 474.578125 162.945312 C 474.277344 171.390625 473.972656 179.835938 473.671875 188.28125 C 473.410156 195.578125 473.148438 202.878906 472.886719 210.175781 C 472.800781 212.570312 472.714844 214.96875 472.628906 217.363281 C 472.585938 218.492188 472.460938 219.660156 472.503906 220.789062 C 472.507812 220.839844 472.5 220.890625 472.5 220.945312 C 472.5 220.945312 475.214844 218.5 475.214844 218.5 C 475.214844 218.5 465.441406 217.988281 465.441406 217.988281 C 465.441406 217.988281 467.886719 220.703125 467.886719 220.703125 C 467.886719 220.703125 468.34375 211.988281 468.34375 211.988281 C 468.34375 211.988281 469.441406 191.0625 469.441406 191.0625 C 469.441406 191.0625 470.765625 165.746094 470.765625 165.746094 C 470.765625 165.746094 471.914062 143.871094 471.914062 143.871094 C 472.097656 140.34375 472.410156 136.800781 472.46875 133.269531 C 472.46875 133.214844 472.476562 133.164062 472.476562 133.113281 C 472.652344 129.792969 467.492188 129.515625 467.320312 132.84375 Z M 467.320312 132.84375 " fill-opacity="1" fill-rule="nonzero"/><path fill="#000000" d="M 464.304688 251.859375 C 465.351562 242.75 466.398438 233.644531 467.445312 224.539062 C 467.59375 223.257812 467.738281 221.980469 467.886719 220.703125 C 468.046875 219.316406 466.773438 218.058594 465.441406 217.988281 C 463.972656 217.910156 462.886719 219.042969 462.726562 220.433594 C 461.679688 229.539062 460.632812 238.644531 459.585938 247.753906 C 459.585938 247.753906 459.144531 251.585938 459.144531 251.585938 C 458.988281 252.976562 460.257812 254.230469 461.589844 254.300781 C 463.058594 254.378906 464.144531 253.25 464.304688 251.859375 Z M 464.304688 251.859375 " fill-opacity="1" fill-rule="nonzero"/><path fill="#000000" d="M 424.074219 148.414062 C 424.074219 148.414062 432.453125 148.851562 432.453125 148.851562 C 432.453125 148.851562 452.6875 149.914062 452.6875 149.914062 C 452.6875 149.914062 477.070312 151.191406 477.070312 151.191406 C 477.070312 151.191406 498.152344 152.296875 498.152344 152.296875 C 501.570312 152.476562 505.003906 152.777344 508.425781 152.835938 C 508.476562 152.835938 508.527344 152.839844 508.578125 152.84375 C 511.898438 153.015625 512.171875 147.859375 508.847656 147.683594 C 508.847656 147.683594 500.46875 147.246094 500.46875 147.246094 C 500.46875 147.246094 480.230469 146.183594 480.230469 146.183594 C 480.230469 146.183594 455.851562 144.90625 455.851562 144.90625 C 455.851562 144.90625 434.769531 143.800781 434.769531 143.800781 C 431.351562 143.621094 427.917969 143.320312 424.496094 143.261719 C 424.445312 143.261719 424.394531 143.257812 424.34375 143.253906 C 421.023438 143.082031 420.75 148.238281 424.074219 148.414062 Z M 424.074219 148.414062 " fill-opacity="1" fill-rule="nonzero"/><path fill="#000000" d="M 431.292969 130.953125 C 431.429688 135.40625 431.566406 139.855469 431.703125 144.308594 C 431.722656 144.949219 431.742188 145.589844 431.761719 146.230469 C 431.804688 147.578125 432.730469 148.933594 434.207031 148.945312 C 435.511719 148.953125 436.964844 147.945312 436.921875 146.5 C 436.785156 142.050781 436.648438 137.597656 436.511719 133.148438 C 436.492188 132.507812 436.472656 131.867188 436.449219 131.222656 C 436.410156 129.878906 435.484375 128.519531 434.007812 128.511719 C 432.703125 128.5 431.25 129.507812 431.292969 130.953125 Z M 431.292969 130.953125 " fill-opacity="1" fill-rule="nonzero"/><path fill="#000000" d="M 367.859375 491.683594 C 369.078125 492.613281 370.496094 493.328125 371.863281 494.003906 C 376.136719 496.128906 380.621094 497.75 385.210938 499.046875 C 398.820312 502.890625 413.242188 504.464844 427.367188 504.332031 C 430.476562 504.304688 433.605469 504.214844 436.703125 503.894531 C 438.089844 503.753906 438.945312 502.066406 438.671875 500.816406 C 438.34375 499.324219 436.984375 498.707031 435.59375 498.851562 C 435.433594 498.867188 435.277344 498.875 435.121094 498.890625 C 434.707031 498.933594 435.976562 498.832031 435.1875 498.886719 C 434.917969 498.90625 434.648438 498.921875 434.378906 498.941406 C 432.675781 499.050781 430.972656 499.117188 429.265625 499.152344 C 423.324219 499.273438 417.378906 499.035156 411.460938 498.496094 C 399.15625 497.367188 386.394531 495.179688 375.117188 489.890625 C 374.996094 489.832031 374.378906 489.53125 374.75 489.714844 C 375.121094 489.894531 374.546875 489.613281 374.429688 489.554688 C 374.082031 489.378906 373.738281 489.199219 373.394531 489.015625 C 372.882812 488.738281 372.378906 488.453125 371.882812 488.148438 C 371.480469 487.902344 371.070312 487.652344 370.695312 487.363281 C 369.585938 486.515625 367.84375 487 367.117188 488.105469 C 366.304688 489.34375 366.75 490.832031 367.859375 491.683594 Z M 367.859375 491.683594 " fill-opacity="1" fill-rule="nonzero"/><path fill="#f7c584" d="M 700.0625 142.21875 C 700.0625 142.21875 738.066406 462.960938 738.066406 462.960938 C 738.066406 462.960938 579.605469 471.265625 579.605469 471.265625 C 579.605469 471.265625 541.597656 150.523438 541.597656 150.523438 C 541.597656 150.523438 700.0625 142.21875 700.0625 142.21875 Z M 700.0625 142.21875 " fill-opacity="1" fill-rule="nonzero"/><path fill="#000000" d="M 697.480469 142.351562 C 697.820312 145.21875 698.160156 148.082031 698.5 150.945312 C 699.421875 158.742188 700.347656 166.535156 701.269531 174.332031 C 702.636719 185.859375 704.003906 197.382812 705.367188 208.910156 C 707.027344 222.921875 708.6875 236.933594 710.347656 250.941406 C 710.347656 250.941406 715.800781 296.96875 715.800781 296.96875 C 717.644531 312.507812 719.484375 328.046875 721.328125 343.585938 C 723.042969 358.074219 724.757812 372.5625 726.476562 387.050781 C 727.925781 399.289062 729.375 411.53125 730.828125 423.769531 C 731.867188 432.539062 732.90625 441.308594 733.945312 450.074219 C 734.433594 454.214844 734.71875 458.445312 735.421875 462.554688 C 735.453125 462.734375 735.464844 462.917969 735.488281 463.097656 C 735.488281 463.097656 737.929688 460.382812 737.929688 460.382812 C 737.929688 460.382812 729.355469 460.832031 729.355469 460.832031 C 726.035156 461.007812 726.300781 466.164062 729.625 465.992188 C 729.625 465.992188 738.203125 465.542969 738.203125 465.542969 C 739.527344 465.472656 740.8125 464.21875 740.644531 462.828125 C 740.304688 459.964844 739.964844 457.097656 739.628906 454.234375 C 738.703125 446.441406 737.78125 438.644531 736.855469 430.851562 C 735.492188 419.324219 734.125 407.796875 732.757812 396.269531 C 732.757812 396.269531 727.777344 354.238281 727.777344 354.238281 C 725.960938 338.894531 724.144531 323.554688 722.324219 308.210938 C 720.484375 292.671875 718.644531 277.132812 716.800781 261.59375 C 715.085938 247.105469 713.367188 232.617188 711.652344 218.128906 C 710.199219 205.890625 708.75 193.652344 707.300781 181.414062 C 706.261719 172.644531 705.222656 163.875 704.183594 155.105469 C 703.691406 150.945312 703.238281 146.78125 702.703125 142.625 C 702.679688 142.445312 702.660156 142.265625 702.640625 142.082031 C 702.25 138.796875 697.089844 139.046875 697.480469 142.351562 Z M 697.480469 142.351562 " fill-opacity="1" fill-rule="nonzero"/><path fill="#000000" d="M 543.019531 152.679688 C 545.558594 151.054688 548.101562 149.429688 550.644531 147.804688 C 556.78125 143.882812 562.917969 139.960938 569.054688 136.035156 C 576.449219 131.308594 583.84375 126.582031 591.238281 121.851562 C 597.628906 117.765625 604.023438 113.675781 610.417969 109.589844 C 612.527344 108.242188 614.636719 106.894531 616.746094 105.546875 C 617.738281 104.910156 618.8125 104.332031 619.753906 103.621094 C 619.796875 103.589844 619.84375 103.5625 619.890625 103.535156 C 619.890625 103.535156 617.289062 103.671875 617.289062 103.671875 C 619.984375 105.023438 622.683594 106.371094 625.382812 107.722656 C 631.894531 110.984375 638.40625 114.242188 644.921875 117.503906 C 652.769531 121.433594 660.617188 125.359375 668.464844 129.289062 C 675.25 132.6875 682.035156 136.082031 688.824219 139.480469 C 691.0625 140.601562 693.300781 141.722656 695.539062 142.839844 C 696.589844 143.367188 697.640625 143.992188 698.734375 144.441406 C 698.78125 144.460938 698.828125 144.488281 698.875 144.511719 C 699.226562 142.886719 699.578125 141.261719 699.925781 139.640625 C 699.925781 139.640625 695.6875 139.859375 695.6875 139.859375 C 695.6875 139.859375 684.15625 140.464844 684.15625 140.464844 C 684.15625 140.464844 667.097656 141.359375 667.097656 141.359375 C 667.097656 141.359375 646.285156 142.449219 646.285156 142.449219 C 646.285156 142.449219 623.488281 143.644531 623.488281 143.644531 C 623.488281 143.644531 600.480469 144.851562 600.480469 144.851562 C 600.480469 144.851562 579.121094 145.96875 579.121094 145.96875 C 579.121094 145.96875 560.976562 146.921875 560.976562 146.921875 C 560.976562 146.921875 547.925781 147.605469 547.925781 147.605469 C 545.863281 147.710938 543.789062 147.773438 541.730469 147.929688 C 541.640625 147.9375 541.550781 147.9375 541.464844 147.945312 C 538.144531 148.117188 538.410156 153.277344 541.734375 153.101562 C 541.734375 153.101562 545.972656 152.878906 545.972656 152.878906 C 545.972656 152.878906 557.503906 152.277344 557.503906 152.277344 C 557.503906 152.277344 574.5625 151.382812 574.5625 151.382812 C 574.5625 151.382812 595.375 150.289062 595.375 150.289062 C 595.375 150.289062 618.171875 149.097656 618.171875 149.097656 C 618.171875 149.097656 641.179688 147.890625 641.179688 147.890625 C 641.179688 147.890625 662.539062 146.769531 662.539062 146.769531 C 662.539062 146.769531 680.683594 145.820312 680.683594 145.820312 C 680.683594 145.820312 693.734375 145.136719 693.734375 145.136719 C 695.796875 145.027344 697.871094 144.976562 699.929688 144.8125 C 700.015625 144.804688 700.105469 144.800781 700.195312 144.796875 C 702.734375 144.664062 703.550781 141.074219 701.246094 139.921875 C 698.527344 138.5625 695.808594 137.199219 693.089844 135.839844 C 693.089844 135.839844 673.519531 126.042969 673.519531 126.042969 C 665.609375 122.082031 657.699219 118.125 649.785156 114.164062 C 643.007812 110.769531 636.230469 107.375 629.449219 103.980469 C 626.230469 102.371094 623.046875 100.601562 619.757812 99.128906 C 618.160156 98.414062 617.167969 99.140625 615.953125 99.917969 C 614.371094 100.929688 612.789062 101.941406 611.207031 102.953125 C 605.414062 106.65625 599.621094 110.359375 593.828125 114.066406 C 586.441406 118.785156 579.054688 123.507812 571.667969 128.230469 C 564.996094 132.496094 558.324219 136.761719 551.652344 141.027344 C 551.652344 141.027344 540.695312 148.035156 540.695312 148.035156 C 540.523438 148.144531 540.351562 148.253906 540.179688 148.363281 C 537.378906 150.152344 540.210938 154.476562 543.019531 152.679688 Z M 543.019531 152.679688 " fill-opacity="1" fill-rule="nonzero"/><path fill="#000000" d="M 615.269531 40.273438 C 609.28125 40.667969 604.242188 44.664062 602.457031 50.382812 C 600.746094 55.847656 602.835938 62.203125 607.421875 65.617188 C 610.136719 67.640625 613.359375 68.652344 616.75 68.519531 C 616.75 68.519531 614.035156 66.074219 614.035156 66.074219 C 614.035156 66.074219 615.660156 97.054688 615.660156 97.054688 C 615.660156 97.054688 615.894531 101.511719 615.894531 101.511719 C 616.066406 104.832031 621.226562 104.566406 621.050781 101.242188 C 621.050781 101.242188 619.429688 70.261719 619.429688 70.261719 C 619.429688 70.261719 619.195312 65.804688 619.195312 65.804688 C 619.121094 64.398438 617.878906 63.304688 616.480469 63.359375 C 611.578125 63.554688 607.304688 59.8125 607.046875 54.867188 C 606.789062 49.921875 610.652344 45.753906 615.539062 45.433594 C 618.855469 45.21875 618.59375 40.058594 615.269531 40.273438 Z M 615.269531 40.273438 " fill-opacity="1" fill-rule="nonzero"/><path fill="#d7859e" d="M 718.632812 496.5625 C 718.632812 496.5625 687.65625 488.5625 642.421875 501.414062 C 597.1875 514.261719 560.167969 504.867188 560.167969 504.867188 C 560.167969 504.867188 541.597656 150.523438 541.597656 150.523438 C 541.597656 150.523438 565.882812 140.332031 620.363281 137.476562 C 674.84375 134.621094 700.0625 142.21875 700.0625 142.21875 C 700.0625 142.21875 718.632812 496.5625 718.632812 496.5625 Z M 718.632812 496.5625 " fill-opacity="1" fill-rule="nonzero"/><path fill="#ffffff" d="M 554.710938 400.683594 C 554.710938 400.683594 579.4375 376.890625 637.417969 375.300781 C 695.398438 373.714844 711.382812 358.25 711.382812 358.25 C 711.382812 358.25 706.820312 271.140625 706.820312 271.140625 C 706.820312 271.140625 681.867188 295.253906 630.496094 298.308594 C 579.125 301.367188 550.535156 321.066406 550.535156 321.066406 C 550.535156 321.066406 554.710938 400.683594 554.710938 400.683594 Z M 554.710938 400.683594 " fill-opacity="1" fill-rule="nonzero"/><path fill="#000000" d="M 712.640625 431.601562 C 712.640625 431.601562 713.796875 453.691406 713.796875 453.691406 C 713.796875 453.691406 715.628906 488.644531 715.628906 488.644531 C 715.628906 488.644531 716.050781 496.695312 716.050781 496.695312 C 717.097656 495.808594 718.140625 494.925781 719.1875 494.039062 C 714.878906 492.929688 710.347656 492.464844 705.929688 492.089844 C 693.902344 491.070312 681.796875 491.488281 669.835938 493.078125 C 661.566406 494.179688 653.363281 495.820312 645.296875 497.949219 C 640.957031 499.09375 636.65625 500.347656 632.277344 501.335938 C 628.25 502.242188 624.191406 503 620.109375 503.609375 C 606.535156 505.632812 592.714844 506.128906 579.03125 505.046875 C 579.5 505.082031 578.769531 505.023438 578.632812 505.011719 C 578.316406 504.984375 578 504.957031 577.6875 504.925781 C 577.042969 504.867188 576.394531 504.804688 575.75 504.738281 C 574.628906 504.621094 573.511719 504.492188 572.390625 504.351562 C 570.535156 504.121094 568.683594 503.855469 566.839844 503.546875 C 564.875 503.222656 562.941406 502.746094 560.980469 502.40625 C 560.894531 502.390625 560.808594 502.363281 560.722656 502.34375 C 561.398438 503.140625 562.074219 503.933594 562.75 504.730469 C 562.75 504.730469 562.476562 499.542969 562.476562 499.542969 C 562.476562 499.542969 561.738281 485.433594 561.738281 485.433594 C 561.738281 485.433594 560.648438 464.65625 560.648438 464.65625 C 560.648438 464.65625 559.320312 439.320312 559.320312 439.320312 C 559.320312 439.320312 557.859375 411.460938 557.859375 411.460938 C 557.859375 411.460938 556.386719 383.339844 556.386719 383.339844 C 556.386719 383.339844 555.015625 357.214844 555.015625 357.214844 C 555.015625 357.214844 553.855469 335.058594 553.855469 335.058594 C 553.855469 335.058594 553.023438 319.183594 553.023438 319.183594 C 552.890625 316.667969 552.8125 314.144531 552.628906 311.636719 C 552.621094 311.527344 552.617188 311.421875 552.613281 311.3125 C 552.4375 307.996094 547.277344 308.261719 547.453125 311.585938 C 547.453125 311.585938 547.726562 316.769531 547.726562 316.769531 C 547.726562 316.769531 548.464844 330.882812 548.464844 330.882812 C 548.464844 330.882812 549.554688 351.660156 549.554688 351.660156 C 549.554688 351.660156 550.882812 376.996094 550.882812 376.996094 C 550.882812 376.996094 552.339844 404.855469 552.339844 404.855469 C 552.339844 404.855469 553.816406 432.976562 553.816406 432.976562 C 553.816406 432.976562 555.183594 459.097656 555.183594 459.097656 C 555.183594 459.097656 556.34375 481.257812 556.34375 481.257812 C 556.34375 481.257812 557.175781 497.132812 557.175781 497.132812 C 557.308594 499.644531 557.382812 502.167969 557.574219 504.679688 C 557.582031 504.789062 557.582031 504.894531 557.589844 505 C 557.648438 506.164062 558.507812 507.109375 559.613281 507.386719 C 564.550781 508.640625 569.695312 509.273438 574.753906 509.796875 C 587.691406 511.128906 600.765625 511.074219 613.691406 509.636719 C 622.128906 508.699219 630.515625 507.175781 638.742188 505.078125 C 643.085938 503.964844 647.382812 502.679688 651.746094 501.644531 C 655.691406 500.707031 659.664062 499.886719 663.664062 499.210938 C 676.316406 497.074219 689.230469 496.179688 702.050781 496.945312 C 702.589844 496.976562 703.128906 497.011719 703.667969 497.050781 C 703.910156 497.066406 704.152344 497.085938 704.398438 497.101562 C 704.53125 497.113281 704.667969 497.125 704.804688 497.132812 C 704.121094 497.082031 704.8125 497.136719 704.917969 497.144531 C 705.914062 497.230469 706.910156 497.328125 707.90625 497.433594 C 709.539062 497.613281 711.167969 497.824219 712.789062 498.074219 C 714.492188 498.339844 716.171875 498.691406 717.855469 499.03125 C 717.929688 499.046875 718.003906 499.066406 718.078125 499.082031 C 719.710938 499.507812 721.296875 498.054688 721.210938 496.425781 C 721.210938 496.425781 720.050781 474.332031 720.050781 474.332031 C 720.050781 474.332031 718.222656 439.382812 718.222656 439.382812 C 718.222656 439.382812 717.800781 431.328125 717.800781 431.328125 C 717.625 428.011719 712.464844 428.277344 712.640625 431.601562 Z M 712.640625 431.601562 " fill-opacity="1" fill-rule="nonzero"/><path fill="#000000" d="M 547.386719 211.636719 C 547.386719 211.636719 546.304688 190.921875 546.304688 190.921875 C 546.304688 190.921875 544.574219 157.929688 544.574219 157.929688 C 544.574219 157.929688 544.179688 150.386719 544.179688 150.386719 C 543.589844 151.25 543.003906 152.113281 542.414062 152.972656 C 546.0625 151.445312 549.960938 150.398438 553.773438 149.382812 C 565.566406 146.238281 576.949219 144.3125 589.101562 142.789062 C 607.898438 140.425781 626.90625 139.335938 645.851562 139.417969 C 659.078125 139.472656 671.75 140.082031 684.675781 141.886719 C 688.121094 142.371094 691.5625 142.933594 694.96875 143.652344 C 696.425781 143.957031 697.871094 144.417969 699.335938 144.691406 C 699.394531 144.703125 699.449219 144.722656 699.507812 144.742188 C 698.832031 143.945312 698.15625 143.148438 697.484375 142.351562 C 697.484375 142.351562 697.8125 148.679688 697.8125 148.679688 C 697.8125 148.679688 698.722656 165.984375 698.722656 165.984375 C 698.722656 165.984375 700.058594 191.492188 700.058594 191.492188 C 700.058594 191.492188 701.695312 222.722656 701.695312 222.722656 C 701.695312 222.722656 703.480469 256.8125 703.480469 256.8125 C 703.480469 256.8125 705.285156 291.21875 705.285156 291.21875 C 705.285156 291.21875 706.964844 323.304688 706.964844 323.304688 C 706.964844 323.304688 708.386719 350.429688 708.386719 350.429688 C 708.386719 350.429688 709.414062 370.003906 709.414062 370.003906 C 709.574219 373.082031 709.683594 376.167969 709.898438 379.242188 C 709.90625 379.375 709.910156 379.507812 709.917969 379.640625 C 710.09375 382.960938 715.25 382.695312 715.078125 379.371094 C 715.078125 379.371094 714.746094 373.042969 714.746094 373.042969 C 714.746094 373.042969 713.839844 355.738281 713.839844 355.738281 C 713.839844 355.738281 712.5 330.230469 712.5 330.230469 C 712.5 330.230469 710.863281 299 710.863281 299 C 710.863281 299 709.078125 264.910156 709.078125 264.910156 C 709.078125 264.910156 707.273438 230.503906 707.273438 230.503906 C 707.273438 230.503906 705.59375 198.417969 705.59375 198.417969 C 705.59375 198.417969 704.171875 171.292969 704.171875 171.292969 C 704.171875 171.292969 703.144531 151.71875 703.144531 151.71875 C 702.984375 148.644531 702.882812 145.554688 702.660156 142.480469 C 702.652344 142.347656 702.648438 142.214844 702.640625 142.082031 C 702.578125 140.878906 701.71875 140.023438 700.617188 139.695312 C 696.769531 138.539062 692.722656 137.902344 688.765625 137.28125 C 676.59375 135.382812 664.238281 134.589844 651.925781 134.335938 C 632.855469 133.941406 613.710938 134.851562 594.753906 136.933594 C 581.507812 138.386719 568.277344 140.449219 555.335938 143.660156 C 550.523438 144.851562 545.53125 146.066406 540.949219 148.003906 C 540.894531 148.027344 540.835938 148.046875 540.785156 148.070312 C 539.722656 148.515625 538.957031 149.460938 539.019531 150.65625 C 539.019531 150.65625 540.105469 171.371094 540.105469 171.371094 C 540.105469 171.371094 541.835938 204.363281 541.835938 204.363281 C 541.835938 204.363281 542.230469 211.90625 542.230469 211.90625 C 542.402344 215.226562 547.5625 214.960938 547.386719 211.636719 Z M 547.386719 211.636719 " fill-opacity="1" fill-rule="nonzero"/><path fill="#d7859e" d="M 290.5 108.125 C 290.5 108.125 307.011719 99.816406 327.488281 97.933594 C 347.964844 96.050781 369.484375 102.03125 369.484375 102.03125 C 369.484375 102.03125 375.046875 142.75 335.148438 144.839844 C 295.246094 146.933594 290.5 108.125 290.5 108.125 Z M 290.5 108.125 " fill-opacity="1" fill-rule="nonzero"/><path fill="#000000" d="M 255.273438 152.929688 C 257.816406 151.300781 260.355469 149.675781 262.898438 148.050781 C 269.035156 144.128906 275.171875 140.207031 281.308594 136.28125 C 288.703125 131.554688 296.097656 126.828125 303.492188 122.097656 C 309.886719 118.011719 316.277344 113.925781 322.671875 109.835938 C 324.78125 108.488281 326.890625 107.140625 329 105.792969 C 329.992188 105.15625 331.066406 104.578125 332.011719 103.867188 C 332.050781 103.835938 332.101562 103.808594 332.144531 103.78125 C 332.144531 103.78125 329.542969 103.917969 329.542969 103.917969 C 332.238281 105.269531 334.9375 106.617188 337.636719 107.96875 C 344.148438 111.230469 350.664062 114.488281 357.175781 117.75 C 365.023438 121.679688 372.871094 125.609375 380.71875 129.535156 C 387.507812 132.933594 394.289062 136.332031 401.074219 139.726562 C 403.3125 140.847656 405.550781 141.96875 407.789062 143.089844 C 408.84375 143.617188 409.894531 144.238281 410.988281 144.6875 C 411.035156 144.707031 411.082031 144.738281 411.128906 144.761719 C 411.480469 143.136719 411.832031 141.511719 412.179688 139.886719 C 412.179688 139.886719 407.941406 140.109375 407.941406 140.109375 C 407.941406 140.109375 396.410156 140.710938 396.410156 140.710938 C 396.410156 140.710938 379.351562 141.605469 379.351562 141.605469 C 379.351562 141.605469 358.539062 142.695312 358.539062 142.695312 C 358.539062 142.695312 335.742188 143.890625 335.742188 143.890625 C 335.742188 143.890625 312.734375 145.097656 312.734375 145.097656 C 312.734375 145.097656 291.375 146.214844 291.375 146.214844 C 291.375 146.214844 273.230469 147.167969 273.230469 147.167969 C 273.230469 147.167969 260.179688 147.851562 260.179688 147.851562 C 258.117188 147.960938 256.046875 148.019531 253.984375 148.175781 C 253.898438 148.183594 253.808594 148.183594 253.71875 148.191406 C 250.398438 148.363281 250.664062 153.523438 253.988281 153.347656 C 253.988281 153.347656 258.226562 153.125 258.226562 153.125 C 258.226562 153.125 269.761719 152.523438 269.761719 152.523438 C 269.761719 152.523438 286.816406 151.628906 286.816406 151.628906 C 286.816406 151.628906 307.628906 150.539062 307.628906 150.539062 C 307.628906 150.539062 330.425781 149.34375 330.425781 149.34375 C 330.425781 149.34375 353.433594 148.136719 353.433594 148.136719 C 353.433594 148.136719 374.792969 147.015625 374.792969 147.015625 C 374.792969 147.015625 392.9375 146.066406 392.9375 146.066406 C 392.9375 146.066406 405.988281 145.382812 405.988281 145.382812 C 408.050781 145.273438 410.125 145.222656 412.179688 145.058594 C 412.269531 145.050781 412.359375 145.046875 412.449219 145.042969 C 414.988281 144.910156 415.804688 141.324219 413.5 140.167969 C 410.78125 138.808594 408.0625 137.449219 405.34375 136.085938 C 405.34375 136.085938 385.773438 126.289062 385.773438 126.289062 C 377.863281 122.328125 369.953125 118.371094 362.042969 114.410156 C 355.261719 111.015625 348.480469 107.621094 341.703125 104.226562 C 338.484375 102.617188 335.300781 100.847656 332.011719 99.378906 C 330.414062 98.664062 329.425781 99.386719 328.207031 100.167969 C 326.625 101.175781 325.042969 102.1875 323.460938 103.199219 C 317.667969 106.90625 311.875 110.605469 306.082031 114.3125 C 298.699219 119.03125 291.3125 123.753906 283.925781 128.476562 C 277.253906 132.742188 270.578125 137.011719 263.90625 141.277344 C 260.253906 143.609375 256.601562 145.945312 252.949219 148.28125 C 252.777344 148.390625 252.605469 148.5 252.433594 148.609375 C 249.632812 150.402344 252.464844 154.722656 255.273438 152.929688 Z M 255.273438 152.929688 " fill-opacity="1" fill-rule="nonzero"/><path fill="#000000" d="M 327.523438 40.523438 C 321.535156 40.914062 316.496094 44.914062 314.710938 50.628906 C 313 56.09375 315.089844 62.449219 319.675781 65.863281 C 322.390625 67.890625 325.613281 68.902344 329.003906 68.765625 C 329.003906 68.765625 326.289062 66.320312 326.289062 66.320312 C 326.289062 66.320312 327.914062 97.300781 327.914062 97.300781 C 327.914062 97.300781 328.148438 101.757812 328.148438 101.757812 C 328.320312 105.078125 333.480469 104.8125 333.304688 101.488281 C 333.304688 101.488281 331.683594 70.507812 331.683594 70.507812 C 331.683594 70.507812 331.449219 66.050781 331.449219 66.050781 C 331.375 64.644531 330.132812 63.550781 328.734375 63.605469 C 323.832031 63.800781 319.558594 60.058594 319.300781 55.113281 C 319.042969 50.167969 322.90625 46 327.792969 45.679688 C 331.109375 45.464844 330.847656 40.304688 327.523438 40.523438 Z M 327.523438 40.523438 " fill-opacity="1" fill-rule="nonzero"/><path fill="#ffffff" d="M 290.496094 108.125 C 290.496094 108.125 307.339844 135.011719 335.128906 133.554688 C 362.914062 132.097656 369.484375 102.03125 369.484375 102.03125 C 369.484375 102.03125 413.101562 112.933594 428.425781 138.628906 C 443.75 164.324219 478.945312 347.5 474.5625 362.019531 C 470.179688 376.539062 448.109375 380.234375 434.933594 376.992188 C 421.761719 373.753906 417.488281 344.042969 417.488281 344.042969 C 417.488281 344.042969 390.234375 356.152344 357.773438 358.425781 C 325.3125 360.699219 272.449219 345.640625 272.449219 345.640625 C 272.449219 345.640625 275.65625 380.679688 268.230469 386.160156 C 260.800781 391.640625 228.761719 387.476562 224.785156 372.253906 C 220.808594 357.027344 230.222656 182.207031 236.675781 152.71875 C 243.132812 123.230469 290.496094 108.125 290.496094 108.125 Z M 290.496094 108.125 " fill-opacity="1" fill-rule="nonzero"/><path fill="#000000" d="M 275.890625 114.519531 C 278.441406 118.96875 281.964844 123.007812 285.523438 126.660156 C 293.496094 134.832031 303.316406 141.175781 314.214844 144.652344 C 326.707031 148.640625 340.921875 148.964844 352.921875 143.222656 C 362.554688 138.613281 370.15625 130.980469 375.945312 122.109375 C 377.96875 119.007812 379.761719 115.753906 381.304688 112.390625 C 382.167969 110.507812 383.066406 108.546875 383.65625 106.554688 C 383.675781 106.472656 383.707031 106.394531 383.734375 106.3125 C 384.160156 104.984375 383.039062 103.511719 381.765625 103.234375 C 380.296875 102.910156 379.117188 103.867188 378.6875 105.199219 C 378.664062 105.28125 378.636719 105.363281 378.609375 105.441406 C 378.574219 105.539062 378.539062 105.636719 378.503906 105.738281 C 378.300781 106.332031 378.777344 105.011719 378.558594 105.589844 C 378.222656 106.472656 377.878906 107.347656 377.511719 108.21875 C 376.238281 111.207031 374.761719 114.113281 373.109375 116.914062 C 372.59375 117.789062 372.058594 118.652344 371.507812 119.503906 C 371.234375 119.925781 370.960938 120.34375 370.679688 120.757812 C 370.609375 120.859375 370.535156 120.964844 370.464844 121.070312 C 370.113281 121.59375 370.6875 120.753906 370.457031 121.078125 C 370.289062 121.316406 370.121094 121.558594 369.953125 121.792969 C 368.585938 123.695312 367.121094 125.527344 365.550781 127.269531 C 364.742188 128.171875 363.902344 129.050781 363.035156 129.902344 C 362.59375 130.335938 362.144531 130.761719 361.6875 131.179688 C 361.46875 131.375 361.25 131.574219 361.03125 131.769531 C 360.921875 131.867188 360.808594 131.964844 360.699219 132.0625 C 360.972656 131.820312 360.769531 132 360.609375 132.136719 C 358.601562 133.824219 356.472656 135.367188 354.222656 136.714844 C 353.683594 137.035156 353.140625 137.34375 352.589844 137.640625 C 352.3125 137.789062 352.035156 137.9375 351.753906 138.082031 C 351.613281 138.15625 351.472656 138.226562 351.328125 138.296875 C 350.628906 138.652344 351.789062 138.089844 351.074219 138.425781 C 349.824219 139.007812 348.554688 139.542969 347.257812 140.011719 C 345.917969 140.492188 344.554688 140.910156 343.171875 141.253906 C 342.503906 141.421875 341.832031 141.570312 341.15625 141.707031 C 340.632812 141.8125 340.949219 141.746094 341.066406 141.726562 C 340.847656 141.765625 340.632812 141.800781 340.414062 141.835938 C 340.019531 141.902344 339.625 141.960938 339.230469 142.015625 C 332.558594 142.929688 326.058594 142.355469 319.558594 140.792969 C 316.359375 140.019531 313.683594 139.140625 310.839844 137.949219 C 308.148438 136.816406 305.542969 135.492188 303.03125 134.003906 C 301.847656 133.300781 300.6875 132.558594 299.542969 131.785156 C 299.128906 131.503906 299.414062 131.699219 299.5 131.757812 C 299.371094 131.667969 299.242188 131.578125 299.113281 131.488281 C 298.859375 131.308594 298.605469 131.125 298.355469 130.945312 C 297.796875 130.539062 297.246094 130.125 296.699219 129.707031 C 294.769531 128.214844 292.914062 126.628906 291.144531 124.953125 C 289.578125 123.46875 288.074219 121.921875 286.640625 120.308594 C 286.488281 120.140625 286.339844 119.96875 286.191406 119.800781 C 286.117188 119.714844 286.046875 119.632812 285.972656 119.550781 C 285.726562 119.269531 286.386719 120.039062 286.027344 119.613281 C 285.742188 119.273438 285.453125 118.933594 285.171875 118.589844 C 284.640625 117.949219 284.125 117.296875 283.617188 116.636719 C 282.449219 115.109375 281.394531 113.523438 280.34375 111.914062 C 280.296875 111.839844 280.253906 111.761719 280.207031 111.683594 C 279.515625 110.472656 277.746094 110.207031 276.628906 110.941406 C 275.40625 111.746094 275.195312 113.304688 275.890625 114.519531 Z M 275.890625 114.519531 " fill-opacity="1" fill-rule="nonzero"/><path fill="#000000" d="M 275.03125 345.507812 C 274.917969 344.027344 274.800781 342.546875 274.6875 341.066406 C 274.378906 337.015625 274.066406 332.960938 273.757812 328.910156 C 273.296875 322.941406 272.839844 316.976562 272.382812 311.007812 C 272.382812 311.007812 270.703125 289.171875 270.703125 289.171875 C 270.09375 281.199219 269.480469 273.222656 268.867188 265.253906 C 268.246094 257.167969 267.625 249.085938 267.003906 241 C 266.429688 233.496094 265.855469 225.996094 265.277344 218.488281 C 264.789062 212.148438 264.304688 205.804688 263.816406 199.464844 C 263.464844 194.902344 263.117188 190.339844 262.765625 185.773438 C 262.597656 183.609375 262.472656 181.4375 262.265625 179.277344 C 262.257812 179.179688 262.25 179.085938 262.246094 178.992188 C 261.988281 175.679688 256.832031 175.9375 257.085938 179.261719 C 257.199219 180.742188 257.3125 182.222656 257.425781 183.703125 C 257.738281 187.753906 258.046875 191.804688 258.359375 195.859375 C 258.820312 201.824219 259.277344 207.792969 259.734375 213.761719 C 259.734375 213.761719 261.410156 235.597656 261.410156 235.597656 C 262.023438 243.570312 262.636719 251.542969 263.246094 259.515625 C 263.867188 267.597656 264.488281 275.683594 265.109375 283.765625 C 265.6875 291.269531 266.261719 298.773438 266.839844 306.277344 C 267.324219 312.621094 267.8125 318.960938 268.300781 325.304688 C 268.648438 329.867188 269 334.429688 269.351562 338.992188 C 269.515625 341.160156 269.644531 343.332031 269.851562 345.492188 C 269.859375 345.585938 269.863281 345.683594 269.871094 345.777344 C 270.125 349.085938 275.285156 348.828125 275.03125 345.507812 Z M 275.03125 345.507812 " fill-opacity="1" fill-rule="nonzero"/><path fill="#000000" d="M 420.066406 343.90625 C 420.066406 343.90625 419.824219 339.269531 419.824219 339.269531 C 419.824219 339.269531 419.167969 326.722656 419.167969 326.722656 C 419.167969 326.722656 418.195312 308.179688 418.195312 308.179688 C 418.195312 308.179688 417.003906 285.453125 417.003906 285.453125 C 417.003906 285.453125 415.707031 260.664062 415.707031 260.664062 C 415.707031 260.664062 414.386719 235.535156 414.386719 235.535156 C 414.386719 235.535156 413.164062 212.203125 413.164062 212.203125 C 413.164062 212.203125 412.128906 192.398438 412.128906 192.398438 C 412.128906 192.398438 411.382812 178.222656 411.382812 178.222656 C 411.265625 175.980469 411.199219 173.730469 411.03125 171.488281 C 411.023438 171.390625 411.023438 171.292969 411.015625 171.195312 C 410.84375 167.875 405.683594 168.140625 405.859375 171.464844 C 405.859375 171.464844 406.101562 176.101562 406.101562 176.101562 C 406.101562 176.101562 406.757812 188.648438 406.757812 188.648438 C 406.757812 188.648438 407.730469 207.195312 407.730469 207.195312 C 407.730469 207.195312 408.921875 229.917969 408.921875 229.917969 C 408.921875 229.917969 410.21875 254.707031 410.21875 254.707031 C 410.21875 254.707031 411.539062 279.835938 411.539062 279.835938 C 411.539062 279.835938 412.761719 303.171875 412.761719 303.171875 C 412.761719 303.171875 413.796875 322.972656 413.796875 322.972656 C 413.796875 322.972656 414.539062 337.152344 414.539062 337.152344 C 414.660156 339.394531 414.726562 341.644531 414.894531 343.882812 C 414.902344 343.980469 414.902344 344.078125 414.910156 344.175781 C 415.082031 347.496094 420.242188 347.230469 420.066406 343.90625 Z M 420.066406 343.90625 " fill-opacity="1" fill-rule="nonzero"/></svg>